<?xml version="1.0" encoding="utf-8"?>
<!-- Generator: Adobe Illustrator 16.0.0, SVG Export Plug-In . SVG Version: 6.00 Build 0)  -->
<!DOCTYPE svg PUBLIC "-//W3C//DTD SVG 1.1//EN" "http://www.w3.org/Graphics/SVG/1.1/DTD/svg11.dtd">
<svg version="1.1" id="Layer_1" xmlns="http://www.w3.org/2000/svg" xmlns:xlink="http://www.w3.org/1999/xlink" x="0px" y="0px"
	 width="35px" height="35px" viewBox="0 0 35 35" enable-background="new 0 0 35 35" xml:space="preserve">
<circle fill="#F87362" cx="17.5" cy="17.483" r="17.5"/>
<g>
	<path fill="#FFFFFF" d="M11.691,17.108h2.774v4.944c0,0-2.003,0.322-3.25,0.322c-3.11,0-3.894-1.737-3.894-4.93
		c0-3.474,1.008-4.931,3.824-4.931c1.471,0,3.32,0.393,3.32,0.393l-0.056,1.499c0,0-1.681-0.183-2.956-0.183
		c-1.653,0-2.143,0.546-2.143,3.222c0,2.535,0.35,3.25,2.087,3.25c0.574,0,1.163-0.057,1.163-0.057v-1.849h-0.869V17.108z"/>
	<path fill="#FFFFFF" d="M16.631,12.681h1.933v9.525h-1.933V12.681z"/>
	<path fill="#FFFFFF" d="M20.985,12.681h6.079v1.681h-4.146v2.802h3.389v1.68h-3.389v3.362h-1.934V12.681z"/>
</g>
</svg>
