<?xml version="1.0" encoding="utf-8"?>
<!-- Generator: Adobe Illustrator 16.0.0, SVG Export Plug-In . SVG Version: 6.00 Build 0)  -->
<!DOCTYPE svg PUBLIC "-//W3C//DTD SVG 1.1//EN" "http://www.w3.org/Graphics/SVG/1.1/DTD/svg11.dtd">
<svg version="1.1" id="Layer_1" xmlns="http://www.w3.org/2000/svg" xmlns:xlink="http://www.w3.org/1999/xlink" x="0px" y="0px"
	 width="400px" height="400px" viewBox="0 0 400 400" enable-background="new 0 0 400 400" xml:space="preserve">
<g>
	<path fill="#E4F1EA" d="M392,8v384H8V8H392 M400,0H0v400h400V0L400,0z"/>
</g>
<circle fill="#727272" cx="183.746" cy="158.292" r="9.425"/>
<circle fill="#727272" cx="183.142" cy="180.951" r="6.817"/>
<circle fill="#727272" cx="183.746" cy="226.469" r="9.425"/>
<circle fill="#727272" cx="183.746" cy="203.51" r="9.425"/>
<circle fill="#727272" cx="183.344" cy="248.526" r="6.218"/>
<circle fill="#414141" cx="160.886" cy="157.89" r="7.019"/>
<circle fill="#414141" cx="160.886" cy="180.75" r="9.024"/>
<circle fill="#414141" cx="160.685" cy="203.41" r="8.823"/>
<circle fill="#414141" cx="161.286" cy="226.469" r="6.216"/>
<circle fill="#727272" cx="183.344" cy="135.432" r="7.019"/>
<circle fill="#878787" cx="205.802" cy="135.432" r="9.425"/>
<circle fill="#A2A2A2" cx="228.663" cy="135.432" r="9.425"/>
<circle fill="#B5B5B5" cx="251.121" cy="135.032" r="7.018"/>
<circle fill="#878787" cx="205.601" cy="158.091" r="6.016"/>
<circle fill="#A2A2A2" cx="228.06" cy="158.091" r="6.017"/>
<circle fill="#727272" cx="183.344" cy="267.777" r="6.218"/>
<circle fill="#414141" cx="161.286" cy="248.927" r="6.216"/>
<path fill="#878787" d="M212.418,203.41c0,3.765-3.053,6.817-6.814,6.817c-3.768,0-6.818-3.053-6.818-6.817
	c0-3.767,3.05-6.819,6.818-6.819C209.365,196.591,212.418,199.644,212.418,203.41z"/>
<circle fill="#A2A2A2" cx="228.06" cy="203.41" r="6.817"/>
<circle fill="#878787" cx="206.204" cy="226.27" r="5.614"/>
</svg>
